<?xml version="1.0" encoding="UTF-8" standalone="no"?>
<!DOCTYPE svg PUBLIC "-//W3C//DTD SVG 1.1//EN"
 "http://www.w3.org/Graphics/SVG/1.1/DTD/svg11.dtd">
<!-- Generated by graphviz version 2.40.1 (0)
 -->
<!-- Title: deps Pages: 1 -->
<svg width="683pt" height="188pt"
 viewBox="0.00 0.00 682.50 188.00" xmlns="http://www.w3.org/2000/svg" xmlns:xlink="http://www.w3.org/1999/xlink">
<g id="graph0" class="graph" transform="scale(1 1) rotate(0) translate(4 184)">
<title>deps</title>
<polygon fill="#ffffff" stroke="transparent" points="-4,4 -4,-184 678.5,-184 678.5,4 -4,4"/>
<!-- Darstellung -->
<g id="node1" class="node">
<title>Darstellung</title>
<polygon fill="none" stroke="#ff0000" points="422,-180 183,-180 183,-144 422,-144 422,-180"/>
<text text-anchor="middle" x="302.5" y="-158.3" font-family="Courier" font-size="14.00" fill="#000000">Darstellung (Leaflet, D3.js)</text>
</g>
<!-- FulcroState -->
<g id="node2" class="node">
<title>FulcroState</title>
<polygon fill="none" stroke="#0000ff" points="405.5,-108 199.5,-108 199.5,-72 405.5,-72 405.5,-108"/>
<text text-anchor="middle" x="302.5" y="-86.3" font-family="Courier" font-size="14.00" fill="#000000">Client DB (FulcroState)</text>
</g>
<!-- Darstellung&#45;&gt;FulcroState -->
<g id="edge1" class="edge">
<title>Darstellung&#45;&gt;FulcroState</title>
<path fill="none" stroke="#0000ff" stroke-dasharray="5,2" d="M302.5,-133.5726C302.5,-125.1084 302.5,-116.0593 302.5,-108.4133"/>
<polygon fill="#0000ff" stroke="#0000ff" points="299.0001,-133.8313 302.5,-143.8314 306.0001,-133.8314 299.0001,-133.8313"/>
</g>
<!-- Kartendaten -->
<g id="node3" class="node">
<title>Kartendaten</title>
<polygon fill="none" stroke="#ff0000" points="107,-36 0,-36 0,0 107,0 107,-36"/>
<text text-anchor="middle" x="53.5" y="-14.3" font-family="Courier" font-size="14.00" fill="#000000">Kartendaten</text>
</g>
<!-- FulcroState&#45;&gt;Kartendaten -->
<g id="edge2" class="edge">
<title>FulcroState&#45;&gt;Kartendaten</title>
<path fill="none" stroke="#0000ff" stroke-dasharray="5,2" d="M230.192,-69.0917C190.8939,-57.7283 143.1245,-43.9155 107.1677,-33.5184"/>
<polygon fill="#0000ff" stroke="#0000ff" points="229.4095,-72.5087 239.9882,-71.9243 231.354,-65.7842 229.4095,-72.5087"/>
</g>
<!-- Höhendaten -->
<g id="node4" class="node">
<title>Höhendaten</title>
<polygon fill="none" stroke="#ff0000" points="278,-36 179,-36 179,0 278,0 278,-36"/>
<text text-anchor="middle" x="228.5" y="-14.3" font-family="Courier" font-size="14.00" fill="#000000">Höhendaten</text>
</g>
<!-- FulcroState&#45;&gt;Höhendaten -->
<g id="edge3" class="edge">
<title>FulcroState&#45;&gt;Höhendaten</title>
<path fill="none" stroke="#0000ff" stroke-dasharray="5,2" d="M276.383,-64.5888C266.7416,-55.2081 256.0181,-44.7744 247.1674,-36.1628"/>
<polygon fill="#0000ff" stroke="#0000ff" points="274.2186,-67.3663 283.8267,-71.8314 279.1001,-62.3492 274.2186,-67.3663"/>
</g>
<!-- ÖPNV -->
<g id="node5" class="node">
<title>ÖPNV</title>
<polygon fill="none" stroke="#ff0000" points="404.5,-36 350.5,-36 350.5,0 404.5,0 404.5,-36"/>
<text text-anchor="middle" x="377.5" y="-14.3" font-family="Courier" font-size="14.00" fill="#000000">ÖPNV</text>
</g>
<!-- FulcroState&#45;&gt;ÖPNV -->
<g id="edge4" class="edge">
<title>FulcroState&#45;&gt;ÖPNV</title>
<path fill="none" stroke="#0000ff" stroke-dasharray="5,2" d="M328.68,-64.8672C338.5262,-55.4149 349.5212,-44.8596 358.5804,-36.1628"/>
<polygon fill="#0000ff" stroke="#0000ff" points="326.2157,-62.3811 321.4257,-71.8314 331.0634,-67.4309 326.2157,-62.3811"/>
</g>
<!-- Fahrstuhlverfügbarkeit -->
<g id="node6" class="node">
<title>Fahrstuhlverfügbarkeit</title>
<polygon fill="none" stroke="#ff0000" points="674.5,-36 476.5,-36 476.5,0 674.5,0 674.5,-36"/>
<text text-anchor="middle" x="575.5" y="-14.3" font-family="Courier" font-size="14.00" fill="#000000">Fahrstuhlverfügbarkeit</text>
</g>
<!-- FulcroState&#45;&gt;Fahrstuhlverfügbarkeit -->
<g id="edge5" class="edge">
<title>FulcroState&#45;&gt;Fahrstuhlverfügbarkeit</title>
<path fill="none" stroke="#0000ff" stroke-dasharray="5,2" d="M380.7158,-69.3717C420.557,-58.8641 468.5546,-46.2054 506.9348,-36.0831"/>
<polygon fill="#0000ff" stroke="#0000ff" points="379.8138,-65.9898 371.037,-71.9243 381.599,-72.7583 379.8138,-65.9898"/>
</g>
<!-- Routing -->
<g id="node7" class="node">
<title>Routing</title>
<polygon fill="none" stroke="#ff0000" points="667.5,-108 477.5,-108 477.5,-72 667.5,-72 667.5,-108"/>
<text text-anchor="middle" x="572.5" y="-86.3" font-family="Courier" font-size="14.00" fill="#000000">(Client&#45;side) Routing</text>
</g>
<!-- FulcroState&#45;&gt;Routing -->
<g id="edge7" class="edge">
<title>FulcroState&#45;&gt;Routing</title>
<path fill="none" stroke="#0000ff" stroke-dasharray="5,2" d="M405.5957,-102.746C426.1395,-103.717 446.6834,-103.7502 467.2272,-102.8454"/>
<polygon fill="#0000ff" stroke="#0000ff" points="467.5057,-106.3358 477.3124,-102.3259 467.1456,-99.3451 467.5057,-106.3358"/>
</g>
<!-- Routing&#45;&gt;FulcroState -->
<g id="edge6" class="edge">
<title>Routing&#45;&gt;FulcroState</title>
<path fill="none" stroke="#0000ff" stroke-dasharray="5,2" d="M477.3124,-77.6741C456.7685,-76.4624 436.2247,-76.1886 415.6809,-76.8526"/>
<polygon fill="#0000ff" stroke="#0000ff" points="415.4486,-73.359 405.5957,-77.254 415.727,-80.3535 415.4486,-73.359"/>
</g>
</g>
</svg>
