<?xml version="1.0" encoding="UTF-8" standalone="no"?>
<!DOCTYPE svg PUBLIC "-//W3C//DTD SVG 1.1//EN"
 "http://www.w3.org/Graphics/SVG/1.1/DTD/svg11.dtd">
<!-- Generated by graphviz version 2.40.1 (0)
 -->
<!-- Title: G Pages: 1 -->
<svg width="1021pt" height="457pt"
 viewBox="0.00 0.00 1021.00 457.00" xmlns="http://www.w3.org/2000/svg" xmlns:xlink="http://www.w3.org/1999/xlink">
<g id="graph0" class="graph" transform="scale(1 1) rotate(0) translate(4 453)">
<title>G</title>
<polygon fill="#ffffff" stroke="transparent" points="-4,4 -4,-453 1017,-453 1017,4 -4,4"/>
<g id="clust9" class="cluster">
<title>cluster_legend</title>
<polygon fill="none" stroke="#000000" points="584,-8 584,-83 1005,-83 1005,-8 584,-8"/>
<text text-anchor="middle" x="794.5" y="-67.8" font-family="Times-Roman" font-size="14.00" fill="#000000">Legende</text>
</g>
<!-- deps -->
<g id="node1" class="node">
<title>deps</title>
<polygon fill="none" stroke="#0000ff" points="269.5,-449 186.5,-449 186.5,-413 269.5,-413 269.5,-449"/>
<text text-anchor="middle" x="228" y="-427.3" font-family="Courier" font-size="14.00" fill="#000000">deps.edn</text>
</g>
<!-- Java -->
<g id="node8" class="node">
<title>Java</title>
<polygon fill="none" stroke="#ff0000" points="66,-377 12,-377 12,-341 66,-341 66,-377"/>
<text text-anchor="middle" x="39" y="-355.3" font-family="Courier" font-size="14.00" fill="#000000">Java</text>
</g>
<!-- deps&#45;&gt;Java -->
<g id="edge5" class="edge">
<title>deps&#45;&gt;Java</title>
<path fill="none" stroke="#000000" d="M186.0548,-415.0209C153.0826,-402.46 107.5944,-385.1312 75.9752,-373.0858"/>
<polygon fill="#000000" stroke="#000000" points="76.8209,-369.6626 66.23,-369.3733 74.3289,-376.2041 76.8209,-369.6626"/>
</g>
<!-- clj -->
<g id="node9" class="node">
<title>clj</title>
<polygon fill="none" stroke="#ff0000" points="192,-377 138,-377 138,-341 192,-341 192,-377"/>
<text text-anchor="middle" x="165" y="-355.3" font-family="Courier" font-size="14.00" fill="#000000">clj</text>
</g>
<!-- deps&#45;&gt;clj -->
<g id="edge6" class="edge">
<title>deps&#45;&gt;clj</title>
<path fill="none" stroke="#000000" d="M212.1024,-412.8314C204.7722,-404.454 195.934,-394.3531 187.9031,-385.1749"/>
<polygon fill="#000000" stroke="#000000" points="190.3307,-382.6343 181.1116,-377.4133 185.0627,-387.2438 190.3307,-382.6343"/>
</g>
<!-- cljc -->
<g id="node10" class="node">
<title>cljc</title>
<polygon fill="none" stroke="#ff0000" points="318,-377 264,-377 264,-341 318,-341 318,-377"/>
<text text-anchor="middle" x="291" y="-355.3" font-family="Courier" font-size="14.00" fill="#000000">cljc</text>
</g>
<!-- deps&#45;&gt;cljc -->
<g id="edge7" class="edge">
<title>deps&#45;&gt;cljc</title>
<path fill="none" stroke="#000000" d="M243.8976,-412.8314C251.2278,-404.454 260.066,-394.3531 268.0969,-385.1749"/>
<polygon fill="#000000" stroke="#000000" points="270.9373,-387.2438 274.8884,-377.4133 265.6693,-382.6343 270.9373,-387.2438"/>
</g>
<!-- cljs -->
<g id="node11" class="node">
<title>cljs</title>
<polygon fill="none" stroke="#ff0000" points="444,-377 390,-377 390,-341 444,-341 444,-377"/>
<text text-anchor="middle" x="417" y="-355.3" font-family="Courier" font-size="14.00" fill="#000000">cljs</text>
</g>
<!-- deps&#45;&gt;cljs -->
<g id="edge8" class="edge">
<title>deps&#45;&gt;cljs</title>
<path fill="none" stroke="#000000" d="M269.9452,-415.0209C302.9174,-402.46 348.4056,-385.1312 380.0248,-373.0858"/>
<polygon fill="#000000" stroke="#000000" points="381.6711,-376.2041 389.77,-369.3733 379.1791,-369.6626 381.6711,-376.2041"/>
</g>
<!-- package -->
<g id="node2" class="node">
<title>package</title>
<polygon fill="none" stroke="#0000ff" points="592.5,-449 493.5,-449 493.5,-413 592.5,-413 592.5,-449"/>
<text text-anchor="middle" x="543" y="-427.3" font-family="Courier" font-size="14.00" fill="#000000">package.js</text>
</g>
<!-- JS -->
<g id="node12" class="node">
<title>JS</title>
<polygon fill="none" stroke="#ff0000" points="570,-377 516,-377 516,-341 570,-341 570,-377"/>
<text text-anchor="middle" x="543" y="-355.3" font-family="Courier" font-size="14.00" fill="#000000">JS</text>
</g>
<!-- package&#45;&gt;JS -->
<g id="edge9" class="edge">
<title>package&#45;&gt;JS</title>
<path fill="none" stroke="#000000" d="M543,-412.8314C543,-405.131 543,-395.9743 543,-387.4166"/>
<polygon fill="#000000" stroke="#000000" points="546.5001,-387.4132 543,-377.4133 539.5001,-387.4133 546.5001,-387.4132"/>
</g>
<!-- shadow -->
<g id="node3" class="node">
<title>shadow</title>
<polygon fill="none" stroke="#00ff00" points="369.5,-288 212.5,-288 212.5,-252 369.5,-252 369.5,-288"/>
<text text-anchor="middle" x="291" y="-266.3" font-family="Courier" font-size="14.00" fill="#000000">shadow build tool</text>
</g>
<!-- classfiles -->
<g id="node5" class="node">
<title>classfiles</title>
<polygon fill="none" stroke="#ff0000" points="156.5,-199 57.5,-199 57.5,-163 156.5,-163 156.5,-199"/>
<text text-anchor="middle" x="107" y="-177.3" font-family="Courier" font-size="14.00" fill="#000000">class files</text>
</g>
<!-- shadow&#45;&gt;classfiles -->
<g id="edge15" class="edge">
<title>shadow&#45;&gt;classfiles</title>
<path fill="none" stroke="#000000" d="M253.7649,-251.9895C224.9296,-238.0421 184.8093,-218.636 153.8027,-203.6382"/>
<polygon fill="#000000" stroke="#000000" points="155.0213,-200.3398 144.4951,-199.1362 151.9733,-206.6414 155.0213,-200.3398"/>
</g>
<!-- transpiledJS -->
<g id="node6" class="node">
<title>transpiledJS</title>
<polygon fill="none" stroke="#ff0000" points="353,-199 229,-199 229,-163 353,-163 353,-199"/>
<text text-anchor="middle" x="291" y="-177.3" font-family="Courier" font-size="14.00" fill="#000000">transpiled JS</text>
</g>
<!-- shadow&#45;&gt;transpiledJS -->
<g id="edge16" class="edge">
<title>shadow&#45;&gt;transpiledJS</title>
<path fill="none" stroke="#000000" d="M291,-251.9895C291,-239.7658 291,-223.3495 291,-209.3824"/>
<polygon fill="#000000" stroke="#000000" points="294.5001,-209.2891 291,-199.2892 287.5001,-209.2892 294.5001,-209.2891"/>
</g>
<!-- resources -->
<g id="node13" class="node">
<title>resources</title>
<polygon fill="none" stroke="#ff0000" points="516.5,-199 425.5,-199 425.5,-163 516.5,-163 516.5,-199"/>
<text text-anchor="middle" x="471" y="-177.3" font-family="Courier" font-size="14.00" fill="#000000">resources</text>
</g>
<!-- shadow&#45;&gt;resources -->
<g id="edge17" class="edge">
<title>shadow&#45;&gt;resources</title>
<path fill="none" stroke="#000000" d="M327.4257,-251.9895C355.634,-238.0421 394.8822,-218.636 425.2148,-203.6382"/>
<polygon fill="#000000" stroke="#000000" points="426.9072,-206.706 434.32,-199.1362 423.8046,-200.4311 426.9072,-206.706"/>
</g>
<!-- shadowEdn -->
<g id="node4" class="node">
<title>shadowEdn</title>
<polygon fill="none" stroke="#0000ff" points="140,-288 0,-288 0,-252 140,-252 140,-288"/>
<text text-anchor="middle" x="70" y="-266.3" font-family="Courier" font-size="14.00" fill="#000000">shadow&#45;cljs.edn</text>
</g>
<!-- shadowEdn&#45;&gt;shadow -->
<g id="edge18" class="edge">
<title>shadowEdn&#45;&gt;shadow</title>
<path fill="none" stroke="#000000" d="M140.3574,-270C161.0067,-270 181.656,-270 202.3053,-270"/>
<polygon fill="#000000" stroke="#000000" points="202.4423,-273.5001 212.4422,-270 202.4422,-266.5001 202.4423,-273.5001"/>
</g>
<!-- JAR -->
<g id="node14" class="node">
<title>JAR</title>
<polygon fill="none" stroke="#ff0000" points="216,-127 162,-127 162,-91 216,-91 216,-127"/>
<text text-anchor="middle" x="189" y="-105.3" font-family="Courier" font-size="14.00" fill="#000000">JAR</text>
</g>
<!-- classfiles&#45;&gt;JAR -->
<g id="edge19" class="edge">
<title>classfiles&#45;&gt;JAR</title>
<path fill="none" stroke="#000000" d="M127.6921,-162.8314C137.6948,-154.0485 149.855,-143.3712 160.6999,-133.8489"/>
<polygon fill="#000000" stroke="#000000" points="163.1094,-136.3909 168.3146,-127.1628 158.4908,-131.1308 163.1094,-136.3909"/>
</g>
<!-- www -->
<g id="node7" class="node">
<title>www</title>
<polygon fill="none" stroke="#ff0000" points="453.5,-127 370.5,-127 370.5,-91 453.5,-91 453.5,-127"/>
<text text-anchor="middle" x="412" y="-105.3" font-family="Courier" font-size="14.00" fill="#000000">www&#45;root</text>
</g>
<!-- transpiledJS&#45;&gt;www -->
<g id="edge20" class="edge">
<title>transpiledJS&#45;&gt;www</title>
<path fill="none" stroke="#000000" d="M321.5334,-162.8314C337.0101,-153.6221 355.9869,-142.3301 372.5563,-132.4706"/>
<polygon fill="#000000" stroke="#000000" points="374.6724,-135.2843 381.4764,-127.1628 371.0929,-129.2687 374.6724,-135.2843"/>
</g>
<!-- platform -->
<g id="node15" class="node">
<title>platform</title>
<polygon fill="none" stroke="#ff0000" points="716,-127 526,-127 526,-91 716,-91 716,-127"/>
<text text-anchor="middle" x="621" y="-105.3" font-family="Courier" font-size="14.00" fill="#000000">platform specific Code</text>
</g>
<!-- www&#45;&gt;platform -->
<!-- App -->
<g id="node19" class="node">
<title>App</title>
<polygon fill="none" stroke="#ff0000" points="466,-52 412,-52 412,-16 466,-16 466,-52"/>
<text text-anchor="middle" x="439" y="-30.3" font-family="Courier" font-size="14.00" fill="#000000">App</text>
</g>
<!-- www&#45;&gt;App -->
<g id="edge27" class="edge">
<title>www&#45;&gt;App</title>
<path fill="none" stroke="#000000" d="M418.5359,-90.8446C421.6634,-82.1572 425.4776,-71.5623 428.9618,-61.884"/>
<polygon fill="#000000" stroke="#000000" points="432.3365,-62.8426 432.4307,-52.2482 425.7503,-60.4715 432.3365,-62.8426"/>
</g>
<!-- Java&#45;&gt;shadow -->
<g id="edge10" class="edge">
<title>Java&#45;&gt;shadow</title>
<path fill="none" stroke="#000000" d="M66.4481,-349.306C105.4773,-335.5219 178.0468,-309.8922 230.134,-291.4963"/>
<polygon fill="#000000" stroke="#000000" points="231.3452,-294.7805 239.6088,-288.1501 229.014,-288.1801 231.3452,-294.7805"/>
</g>
<!-- Java&#45;&gt;clj -->
<!-- clj&#45;&gt;shadow -->
<g id="edge11" class="edge">
<title>clj&#45;&gt;shadow</title>
<path fill="none" stroke="#000000" d="M190.498,-340.9895C209.5848,-327.5075 235.8924,-308.9252 256.8042,-294.1542"/>
<polygon fill="#000000" stroke="#000000" points="258.9589,-296.9173 265.1075,-288.2892 254.9203,-291.1998 258.9589,-296.9173"/>
</g>
<!-- clj&#45;&gt;cljc -->
<!-- cljc&#45;&gt;shadow -->
<g id="edge12" class="edge">
<title>cljc&#45;&gt;shadow</title>
<path fill="none" stroke="#000000" d="M291,-340.9895C291,-328.7658 291,-312.3495 291,-298.3824"/>
<polygon fill="#000000" stroke="#000000" points="294.5001,-298.2891 291,-288.2892 287.5001,-298.2892 294.5001,-298.2891"/>
</g>
<!-- cljc&#45;&gt;cljs -->
<!-- cljs&#45;&gt;shadow -->
<g id="edge13" class="edge">
<title>cljs&#45;&gt;shadow</title>
<path fill="none" stroke="#000000" d="M391.502,-340.9895C372.4152,-327.5075 346.1076,-308.9252 325.1958,-294.1542"/>
<polygon fill="#000000" stroke="#000000" points="327.0797,-291.1998 316.8925,-288.2892 323.0411,-296.9173 327.0797,-291.1998"/>
</g>
<!-- cljs&#45;&gt;JS -->
<!-- JS&#45;&gt;shadow -->
<g id="edge14" class="edge">
<title>JS&#45;&gt;shadow</title>
<path fill="none" stroke="#000000" d="M515.5519,-349.306C476.5227,-335.5219 403.9532,-309.8922 351.866,-291.4963"/>
<polygon fill="#000000" stroke="#000000" points="352.986,-288.1801 342.3912,-288.1501 350.6548,-294.7805 352.986,-288.1801"/>
</g>
<!-- resources&#45;&gt;www -->
<g id="edge21" class="edge">
<title>resources&#45;&gt;www</title>
<path fill="none" stroke="#000000" d="M456.1118,-162.8314C449.247,-154.454 440.9699,-144.3531 433.4489,-135.1749"/>
<polygon fill="#000000" stroke="#000000" points="436.1341,-132.9297 427.0886,-127.4133 430.7197,-137.3665 436.1341,-132.9297"/>
</g>
<!-- JAR&#45;&gt;www -->
<!-- platform&#45;&gt;App -->
<g id="edge28" class="edge">
<title>platform&#45;&gt;App</title>
<path fill="none" stroke="#000000" d="M576.9429,-90.8446C545.8467,-78.0302 504.6796,-61.0658 475.434,-49.014"/>
<polygon fill="#000000" stroke="#000000" points="476.584,-45.7024 466.0047,-45.1283 473.9169,-52.1744 476.584,-45.7024"/>
</g>
<!-- code -->
<g id="node21" class="node">
<title>code</title>
<polygon fill="none" stroke="#ff0000" points="825,-52 771,-52 771,-16 825,-16 825,-52"/>
<text text-anchor="middle" x="798" y="-30.3" font-family="Courier" font-size="14.00" fill="#000000">Code</text>
</g>
<!-- platform&#45;&gt;code -->
<!-- cordovaConfig -->
<g id="node16" class="node">
<title>cordovaConfig</title>
<polygon fill="none" stroke="#0000ff" points="645.5,-288 488.5,-288 488.5,-252 645.5,-252 645.5,-288"/>
<text text-anchor="middle" x="567" y="-266.3" font-family="Courier" font-size="14.00" fill="#000000">Cordova config.xml</text>
</g>
<!-- cordovaCli -->
<g id="node18" class="node">
<title>cordovaCli</title>
<polygon fill="none" stroke="#00ff00" points="695.5,-199 588.5,-199 588.5,-163 695.5,-163 695.5,-199"/>
<text text-anchor="middle" x="642" y="-177.3" font-family="Courier" font-size="14.00" fill="#000000">cordova&#45;cli</text>
</g>
<!-- cordovaConfig&#45;&gt;cordovaCli -->
<g id="edge24" class="edge">
<title>cordovaConfig&#45;&gt;cordovaCli</title>
<path fill="none" stroke="#000000" d="M582.1774,-251.9895C593.0842,-239.0468 607.952,-221.4037 620.1367,-206.9444"/>
<polygon fill="#000000" stroke="#000000" points="622.8202,-209.1915 626.5878,-199.2892 617.4673,-204.6807 622.8202,-209.1915"/>
</g>
<!-- plugins -->
<g id="node17" class="node">
<title>plugins</title>
<polygon fill="none" stroke="#ff0000" points="718,-235.5 718,-304.5 932,-304.5 932,-235.5 718,-235.5"/>
<text text-anchor="middle" x="755" y="-266.3" font-family="Courier" font-size="14.00" fill="#000000">Plugins</text>
<polyline fill="none" stroke="#ff0000" points="792,-235.5 792,-304.5 "/>
<text text-anchor="middle" x="862" y="-289.3" font-family="Courier" font-size="14.00" fill="#000000">publictransport</text>
<polyline fill="none" stroke="#ff0000" points="792,-281.5 932,-281.5 "/>
<text text-anchor="middle" x="862" y="-266.3" font-family="Courier" font-size="14.00" fill="#000000">graphhopper</text>
<polyline fill="none" stroke="#ff0000" points="792,-258.5 932,-258.5 "/>
<text text-anchor="middle" x="862" y="-243.3" font-family="Courier" font-size="14.00" fill="#000000">sensors</text>
</g>
<!-- plugins&#45;&gt;cordovaCli -->
<g id="edge25" class="edge">
<title>plugins&#45;&gt;cordovaCli</title>
<path fill="none" stroke="#000000" d="M753.9855,-235.4629C731.9554,-224.7488 708.2552,-213.2225 688.356,-203.5447"/>
<polygon fill="#000000" stroke="#000000" points="689.733,-200.3225 679.2094,-199.0964 686.6715,-206.6175 689.733,-200.3225"/>
</g>
<!-- plugins&#45;&gt;code -->
<!-- cordovaCli&#45;&gt;platform -->
<g id="edge26" class="edge">
<title>cordovaCli&#45;&gt;platform</title>
<path fill="none" stroke="#000000" d="M636.7008,-162.8314C634.4302,-155.0463 631.7254,-145.7729 629.206,-137.1347"/>
<polygon fill="#000000" stroke="#000000" points="632.5306,-136.0332 626.3705,-127.4133 625.8106,-137.9933 632.5306,-136.0332"/>
</g>
<!-- conf -->
<g id="node20" class="node">
<title>conf</title>
<polygon fill="none" stroke="#0000ff" points="698.5,-52 591.5,-52 591.5,-16 698.5,-16 698.5,-52"/>
<text text-anchor="middle" x="645" y="-30.3" font-family="Courier" font-size="14.00" fill="#000000">Build Config</text>
</g>
<!-- conf&#45;&gt;code -->
<!-- tool -->
<g id="node22" class="node">
<title>tool</title>
<polygon fill="none" stroke="#00ff00" points="996.5,-52 897.5,-52 897.5,-16 996.5,-16 996.5,-52"/>
<text text-anchor="middle" x="947" y="-30.3" font-family="Courier" font-size="14.00" fill="#000000">Build Tool</text>
</g>
<!-- code&#45;&gt;tool -->
</g>
</svg>
